<?xml version="1.0" encoding="utf-8"?>
<!-- Generator: Adobe Illustrator 21.1.0, SVG Export Plug-In . SVG Version: 6.00 Build 0)  -->
<svg version="1.1" id="Слой_1" xmlns="http://www.w3.org/2000/svg" xmlns:xlink="http://www.w3.org/1999/xlink" x="0px" y="0px"
	 viewBox="0 0 253.7 119.3" style="enable-background:new 0 0 253.7 119.3;" xml:space="preserve">
<style type="text/css">
	.st0{fill:none;stroke:#000000;stroke-width:2;stroke-miterlimit:10;}
	.st1{stroke:#000000;stroke-width:0.5;stroke-miterlimit:10;}
	.st2{fill:none;stroke:#000000;stroke-width:1.5;stroke-miterlimit:10;}
</style>
<circle class="st0" cx="58.9" cy="59.7" r="55.1"/>
<g>
	<path class="st1" d="M24.3,49.4v21.9h-1.5V49.4h-6.1V48h13.7v1.4H24.3z"/>
	<path class="st1" d="M38.8,48v14.6c0,2.2,0.1,3.6,1,5c1.4,2.2,3.9,2.7,5.4,2.7s4.1-0.5,5.4-2.7c0.9-1.4,1-2.8,1-5V48h1.5v14.6
		c0,2.6-0.1,4.2-1.3,6c-1.8,2.6-4.5,3.1-6.6,3.1s-4.9-0.6-6.6-3.1c-1.2-1.8-1.3-3.4-1.3-6V48H38.8z"/>
	<path class="st1" d="M64.3,59l11-11h2L66.1,59.2l12,12.2H76L65,60.3l-0.6,0.6v10.5h-1.5V48h1.5V59z"/>
	<path class="st1" d="M97.1,63.7h-9.9L84,71.4h-1.7l9.8-24l9.7,24h-1.7L97.1,63.7z M96.5,62.3l-4.4-11.1l-4.4,11.1H96.5z"/>
	<path class="st1" d="M133.4,60.3v11.1h-1.5V48h4.5c3.8,0,6.8,2.1,6.8,6.1c0,3.9-2.8,6.2-6.8,6.2H133.4z M133.4,58.9h3.1
		c3,0,5.1-1.8,5.1-4.7c0-2.9-2-4.7-5.4-4.7h-2.8V58.9z"/>
	<path class="st1" d="M152.3,48V70h6.5v1.4h-8.1V48H152.3z"/>
	<path class="st1" d="M178.6,63.7h-9.9l-3.1,7.7h-1.7l9.8-24l9.7,24h-1.7L178.6,63.7z M178,62.3l-4.4-11.1l-4.4,11.1H178z"/>
	<path class="st1" d="M190.3,71.4V47.8l19.6,20.5V48h1.5V72l-19.6-20.5v19.9H190.3z"/>
	<path class="st1" d="M226,49.4v21.9h-1.5V49.4h-6.1V48h13.7v1.4H226z"/>
	<path class="st1" d="M248,52c-1.4-2.8-4-2.9-4.6-2.9c-2.8,0-4.3,2-4.3,4.3c0,2.5,1.8,3.4,4.1,4.5c2.3,1.1,3.5,1.6,4.7,2.5
		c1,0.7,2.5,1.9,2.5,4.5c0,3.9-3.3,6.8-7.3,6.8c-3,0-4.6-1.4-5.4-2.5c-0.9-1-1.3-2-1.5-2.6l1.3-0.6c0.3,0.9,0.9,1.8,1.3,2.2
		c1,1.3,2.8,2,4.4,2c3.2,0,5.6-2.3,5.6-5.4c0-1.3-0.5-2.6-2.3-3.7c-0.7-0.4-2-1.1-4-2c-2.3-1.1-3.5-1.8-4.3-3.1
		c-0.5-0.9-0.7-1.8-0.7-2.7c0-2.7,1.8-5.8,6-5.8c2.3,0,4.5,1.1,5.7,3.3L248,52z"/>
</g>
</svg>
